<svg id="Layer_1" data-name="Layer 1" xmlns="http://www.w3.org/2000/svg" xmlns:xlink="http://www.w3.org/1999/xlink" viewBox="0 0 73 50"><defs><style>.cls-1{fill:url(#linear-gradient);}.cls-2{fill:url(#linear-gradient-2);}</style><linearGradient id="linear-gradient" x1="36.5" y1="44.78" x2="36.5" y2="5.22" gradientUnits="userSpaceOnUse"><stop offset="0" stop-color="#6330ac"/><stop offset="0.2" stop-color="#672fab"/><stop offset="0.4" stop-color="#742ea8"/><stop offset="0.61" stop-color="#882ba4"/><stop offset="0.82" stop-color="#a5279d"/><stop offset="1" stop-color="#c42396"/></linearGradient><linearGradient id="linear-gradient-2" x1="57.66" y1="44.65" x2="57.66" y2="41.11" xlink:href="#linear-gradient"/></defs><title>zw-brand-logo</title><path class="cls-1" d="M65.41,26.34a2.91,2.91,0,0,1-1,.76.69.69,0,0,0-.36.37L59.6,38.1a.21.21,0,0,1-.41-.11L61,26.75a.22.22,0,0,0-.21-.26l-12-3.32a2,2,0,0,1-1.1-.48s-8-8.29-10.19-10.81a.66.66,0,0,0-1,0c-2.29,2.52-10.72,11.62-10.72,11.62a2,2,0,0,1-1.14.49L12.19,26.49a.21.21,0,0,0-.21.26l4.78,17.77a.21.21,0,0,1-.4.12L8.67,27.36A.69.69,0,0,0,8.35,27a2.9,2.9,0,0,1-1.44-2.51,2.94,2.94,0,0,1,.27-1.22,2.8,2.8,0,0,1,.66-.9,2.85,2.85,0,0,1,2-.77,2.9,2.9,0,0,1,2.45,1.34.62.62,0,0,0,.44.28l11.24.46a2,2,0,0,0,2.11-1L34.1,9a.7.7,0,0,0,.09-.42,3,3,0,0,1,0-.42,2.9,2.9,0,0,1,2-2.77,3.1,3.1,0,0,1,.87-.13,3,3,0,0,1,.68.08A2.9,2.9,0,0,1,40,8.12a2.51,2.51,0,0,1-.06.55.73.73,0,0,0,.08.5l7.53,12.7a2,2,0,0,0,2.11,1l10.81.35a.67.67,0,0,0,.44-.29,1.86,1.86,0,0,1,.21-.28,2.85,2.85,0,0,1,4-.32l.06.05a2.88,2.88,0,0,1,.64.85A2.84,2.84,0,0,1,65.41,26.34Z"/><circle class="cls-2" cx="57.66" cy="42.88" r="1.77"/></svg>